<svg width="15" height="25" viewBox="0 0 15 25" fill="none" xmlns="http://www.w3.org/2000/svg">
<path d="M13.0305 1.91397L2.04 0.244474C1.53 0.164974 1.0095 0.304475 0.6195 0.634475C0.2295 0.974975 0 1.46397 0 1.97397V23.0445C0 23.595 0.45 24.045 1.0005 24.045H4.251V18.795C4.251 17.8245 5.031 17.0445 6.0015 17.0445H8.502C9.4725 17.0445 10.2525 17.8245 10.2525 18.795V24.045H14.502V3.64497C14.5005 2.78397 13.8795 2.05497 13.0305 1.91397ZM5.5005 14.7945H4.0005C3.5865 14.7945 3.2505 14.4585 3.2505 14.0445C3.2505 13.6305 3.5865 13.2945 4.0005 13.2945H5.5005C5.9145 13.2945 6.2505 13.6305 6.2505 14.0445C6.2505 14.4585 5.9145 14.7945 5.5005 14.7945ZM5.5005 11.7945H4.0005C3.5865 11.7945 3.2505 11.4585 3.2505 11.0445C3.2505 10.6305 3.5865 10.2945 4.0005 10.2945H5.5005C5.9145 10.2945 6.2505 10.6305 6.2505 11.0445C6.2505 11.4585 5.9145 11.7945 5.5005 11.7945ZM5.5005 8.79447H4.0005C3.5865 8.79447 3.2505 8.45848 3.2505 8.04447C3.2505 7.63047 3.5865 7.29447 4.0005 7.29447H5.5005C5.9145 7.29447 6.2505 7.63047 6.2505 8.04447C6.2505 8.45848 5.9145 8.79447 5.5005 8.79447ZM5.5005 5.79447H4.0005C3.5865 5.79447 3.2505 5.45847 3.2505 5.04447C3.2505 4.63047 3.5865 4.29447 4.0005 4.29447H5.5005C5.9145 4.29447 6.2505 4.63047 6.2505 5.04447C6.2505 5.45847 5.9145 5.79447 5.5005 5.79447ZM10.5 14.7945H9C8.586 14.7945 8.25 14.4585 8.25 14.0445C8.25 13.6305 8.586 13.2945 9 13.2945H10.5C10.914 13.2945 11.25 13.6305 11.25 14.0445C11.25 14.4585 10.914 14.7945 10.5 14.7945ZM10.5 11.7945H9C8.586 11.7945 8.25 11.4585 8.25 11.0445C8.25 10.6305 8.586 10.2945 9 10.2945H10.5C10.914 10.2945 11.25 10.6305 11.25 11.0445C11.25 11.4585 10.914 11.7945 10.5 11.7945ZM10.5 8.79447H9C8.586 8.79447 8.25 8.45848 8.25 8.04447C8.25 7.63047 8.586 7.29447 9 7.29447H10.5C10.914 7.29447 11.25 7.63047 11.25 8.04447C11.25 8.45848 10.914 8.79447 10.5 8.79447ZM10.5 5.79447H9C8.586 5.79447 8.25 5.45847 8.25 5.04447C8.25 4.63047 8.586 4.29447 9 4.29447H10.5C10.914 4.29447 11.25 4.63047 11.25 5.04447C11.25 5.45847 10.914 5.79447 10.5 5.79447Z" fill="#232536"/>
</svg>
